<svg width="178" height="178" viewBox="0 0 178 178" fill="none" xmlns="http://www.w3.org/2000/svg">
<rect width="178" height="178" fill="#010101"/>
<mask id="path-1-outside-1_611_192" maskUnits="userSpaceOnUse" x="24" y="24" width="131" height="130" fill="black">
<rect fill="white" x="24" y="24" width="131" height="130"/>
<path d="M42.1615 46.7798C42.1615 47.7245 41.9631 48.611 41.5661 49.4392C41.1833 50.2674 40.6517 50.9921 39.9712 51.6133C39.2907 52.2345 38.4967 52.7262 37.5894 53.0886C36.682 53.438 35.7109 53.6127 34.676 53.6127H32.5068C31.4719 53.6127 30.4937 53.438 29.5722 53.0886C28.6648 52.7262 27.8709 52.2345 27.1904 51.6133C26.5099 50.9921 25.9711 50.2674 25.5742 49.4392C25.1914 48.611 25 47.7245 25 46.7798V31.8329C25 30.8882 25.1914 30.0017 25.5742 29.1735C25.9711 28.3453 26.5099 27.6206 27.1904 26.9994C27.8709 26.3782 28.6648 25.8929 29.5722 25.5435C30.4937 25.1812 31.4719 25 32.5068 25H34.676C35.7109 25 36.682 25.1812 37.5894 25.5435C38.4967 25.8929 39.2907 26.3782 39.9712 26.9994C40.6517 27.6206 41.1833 28.3453 41.5661 29.1735C41.9631 30.0017 42.1615 30.8882 42.1615 31.8329V32.9588L39.4182 33.347V31.8329C39.4182 31.2117 39.2907 30.6358 39.0355 30.1052C38.7803 29.5617 38.4329 29.0894 37.9934 28.6882C37.5539 28.287 37.0365 27.97 36.441 27.737C35.8598 27.5041 35.2289 27.3876 34.5484 27.3876H32.6344C31.9539 27.3876 31.316 27.5041 30.7205 27.737C30.1392 27.97 29.6218 28.287 29.1681 28.6882C28.7286 29.0894 28.3813 29.5617 28.1261 30.1052C27.8709 30.6358 27.7433 31.2117 27.7433 31.8329V46.7798C27.7433 47.401 27.8709 47.9833 28.1261 48.5268C28.3813 49.0574 28.7286 49.5298 29.1681 49.9439C29.6218 50.3451 30.1392 50.6621 30.7205 50.8951C31.316 51.128 31.9539 51.2445 32.6344 51.2445H34.5484C35.2289 51.2445 35.8598 51.128 36.441 50.8951C37.0365 50.6621 37.5539 50.3451 37.9934 49.9439C38.4329 49.5298 38.7803 49.0574 39.0355 48.5268C39.2907 47.9833 39.4182 47.401 39.4182 46.7798V45.2657L42.1615 45.6733V46.7798Z"/>
<path d="M53.5124 53.2244V25.3882H70.6739V27.7759H56.2557V38.1222H67.9306V40.5099H56.2557V50.8368H70.6739V53.2244H53.5124Z"/>
<path d="M98.3144 46.3916C98.3144 47.3363 98.116 48.2227 97.719 49.051C97.3362 49.8792 96.8046 50.6039 96.1241 51.2251C95.4436 51.8462 94.6425 52.338 93.721 52.7003C92.8137 53.0497 91.8425 53.2244 90.8076 53.2244H81.1529V25.3882H90.8076C91.8425 25.3882 92.8137 25.5694 93.721 25.9318C94.6425 26.2812 95.4436 26.7665 96.1241 27.3876C96.8046 28.0088 97.3362 28.74 97.719 29.5811C98.116 30.4094 98.3144 31.2958 98.3144 32.2405V46.3916ZM95.5711 32.2405C95.5711 31.6194 95.4436 31.0435 95.1884 30.5129C94.9332 29.9694 94.5787 29.497 94.1251 29.0958C93.6856 28.6817 93.1681 28.3582 92.5727 28.1253C91.9914 27.8923 91.3605 27.7759 90.68 27.7759H83.8962V50.8368H90.68C91.3605 50.8368 91.9914 50.7204 92.5727 50.4874C93.1681 50.2545 93.6856 49.9374 94.1251 49.5362C94.5787 49.1351 94.9332 48.6692 95.1884 48.1386C95.4436 47.5951 95.5711 47.0127 95.5711 46.3916V32.2405Z"/>
<path d="M121.51 46.741H111.856L109.857 53.2244H107.007L115.939 25.3882H117.385L126.359 53.2244H123.531L121.51 46.741ZM112.6 44.3534H120.787L116.768 31.5223L116.683 30.4935L116.598 31.5223L112.6 44.3534Z"/>
<path d="M149.831 53.2244L141.559 41.3446H137.795V53.2244H135.052V25.3882H144.728C145.763 25.3882 146.734 25.5694 147.641 25.9318C148.548 26.2812 149.342 26.7665 150.023 27.3876C150.703 28.0088 151.235 28.74 151.618 29.5811C152.015 30.4094 152.213 31.2958 152.213 32.2405V34.4923C152.213 35.437 152.015 36.3299 151.618 37.1711C151.235 37.9993 150.703 38.724 150.023 39.3452C149.342 39.9663 148.548 40.4581 147.641 40.8204C146.734 41.1699 145.763 41.3446 144.728 41.3446L153 53.2244H149.831ZM149.47 32.2405C149.47 31.6194 149.342 31.0435 149.087 30.5129C148.832 29.9694 148.485 29.497 148.045 29.0958C147.606 28.6817 147.088 28.3582 146.493 28.1253C145.911 27.8923 145.28 27.7759 144.6 27.7759H137.795V38.9569H144.6C145.28 38.9569 145.911 38.8405 146.493 38.6075C147.088 38.3746 147.606 38.0575 148.045 37.6564C148.485 37.2422 148.832 36.7699 149.087 36.2393C149.342 35.6958 149.47 35.1134 149.47 34.4923V32.2405Z"/>
<path d="M42.1615 102.918H41.2896L39.6947 100.686C39.0284 101.488 38.2203 102.129 37.2704 102.608C36.3205 103.073 35.2643 103.306 34.1018 103.306H32.5068C31.4719 103.306 30.4937 103.132 29.5722 102.782C28.6648 102.42 27.8709 101.928 27.1904 101.307C26.5099 100.686 25.9711 99.9611 25.5742 99.1329C25.1914 98.3046 25 97.4182 25 96.4735V81.5265C25 80.5818 25.1914 79.6954 25.5742 78.8672C25.9711 78.0389 26.5099 77.3142 27.1904 76.6931C27.8709 76.0719 28.6648 75.5866 29.5722 75.2372C30.4937 74.8748 31.4719 74.6937 32.5068 74.6937H34.676C35.7109 74.6937 36.682 74.8748 37.5894 75.2372C38.4967 75.5866 39.2907 76.0719 39.9712 76.6931C40.6517 77.3142 41.1833 78.0389 41.5661 78.8672C41.9631 79.6954 42.1615 80.5818 42.1615 81.5265V82.6524L39.4182 83.0406V81.5265C39.4182 80.9054 39.2907 80.3295 39.0355 79.7989C38.7803 79.2554 38.4329 78.783 37.9934 78.3819C37.5539 77.9807 37.0365 77.6636 36.441 77.4307C35.8598 77.1978 35.2289 77.0813 34.5484 77.0813H32.6344C31.9539 77.0813 31.316 77.1978 30.7205 77.4307C30.1392 77.6636 29.6218 77.9807 29.1681 78.3819C28.7286 78.783 28.3813 79.2554 28.1261 79.7989C27.8709 80.3295 27.7433 80.9054 27.7433 81.5265V96.4735C27.7433 97.0946 27.8709 97.677 28.1261 98.2205C28.3813 98.7511 28.7286 99.2234 29.1681 99.6376C29.6218 100.039 30.1392 100.356 30.7205 100.589C31.316 100.822 31.9539 100.938 32.6344 100.938H34.5484C35.2289 100.938 35.8598 100.822 36.441 100.589C37.0365 100.356 37.5539 100.039 37.9934 99.6376C38.4329 99.2234 38.7803 98.7511 39.0355 98.2205C39.2907 97.677 39.4182 97.0946 39.4182 96.4735V90.6694H34.5484V88.2818H42.1615V102.918Z"/>
<path d="M68.2709 102.918L59.9985 91.0382H56.2344V102.918H53.4911V75.0819H63.1671C64.202 75.0819 65.1732 75.2631 66.0805 75.6254C66.9879 75.9748 67.7818 76.4601 68.4623 77.0813C69.1428 77.7025 69.6744 78.4336 70.0572 79.2748C70.4542 80.103 70.6527 80.9895 70.6527 81.9342V84.1859C70.6527 85.1306 70.4542 86.0236 70.0572 86.8647C69.6744 87.693 69.1428 88.4177 68.4623 89.0388C67.7818 89.66 66.9879 90.1518 66.0805 90.5141C65.1732 90.8635 64.202 91.0382 63.1671 91.0382L71.4395 102.918H68.2709ZM67.9094 81.9342C67.9094 81.313 67.7818 80.7371 67.5266 80.2066C67.2714 79.663 66.9241 79.1907 66.4846 78.7895C66.0451 78.3754 65.5276 78.0519 64.9322 77.8189C64.3509 77.586 63.72 77.4695 63.0395 77.4695H56.2344V88.6506H63.0395C63.72 88.6506 64.3509 88.5341 64.9322 88.3012C65.5276 88.0682 66.0451 87.7512 66.4846 87.35C66.9241 86.9359 67.2714 86.4636 67.5266 85.933C67.7818 85.3894 67.9094 84.8071 67.9094 84.1859V81.9342Z"/>
<path d="M98.6334 96.4735C98.6334 97.4182 98.4349 98.3046 98.038 99.1329C97.6552 99.9611 97.1236 100.686 96.443 101.307C95.7625 101.928 94.9686 102.42 94.0613 102.782C93.1539 103.132 92.1828 103.306 91.1479 103.306H88.9787C87.9438 103.306 86.9656 103.132 86.044 102.782C85.1367 102.42 84.3428 101.928 83.6623 101.307C82.9818 100.686 82.443 99.9611 82.0461 99.1329C81.6633 98.3046 81.4719 97.4182 81.4719 96.4735V81.5265C81.4719 80.5818 81.6633 79.6954 82.0461 78.8672C82.443 78.0389 82.9818 77.3142 83.6623 76.6931C84.3428 76.0719 85.1367 75.5866 86.044 75.2372C86.9656 74.8748 87.9438 74.6937 88.9787 74.6937H91.1479C92.1828 74.6937 93.1539 74.8748 94.0613 75.2372C94.9686 75.5866 95.7625 76.0719 96.443 76.6931C97.1236 77.3142 97.6552 78.0389 98.038 78.8672C98.4349 79.6954 98.6334 80.5818 98.6334 81.5265V96.4735ZM95.8901 81.5265C95.8901 80.9054 95.7625 80.3295 95.5073 79.7989C95.2522 79.2554 94.9048 78.783 94.4653 78.3819C94.0258 77.9807 93.5084 77.6636 92.9129 77.4307C92.3316 77.1978 91.7008 77.0813 91.0203 77.0813H89.1063C88.4258 77.0813 87.7878 77.1978 87.1924 77.4307C86.6111 77.6636 86.0937 77.9807 85.64 78.3819C85.2005 78.783 84.8532 79.2554 84.598 79.7989C84.3428 80.3295 84.2152 80.9054 84.2152 81.5265V96.4735C84.2152 97.0946 84.3428 97.677 84.598 98.2205C84.8532 98.7511 85.2005 99.2234 85.64 99.6376C86.0937 100.039 86.6111 100.356 87.1924 100.589C87.7878 100.822 88.4258 100.938 89.1063 100.938H91.0203C91.7008 100.938 92.3316 100.822 92.9129 100.589C93.5084 100.356 94.0258 100.039 94.4653 99.6376C94.9048 99.2234 95.2522 98.7511 95.5073 98.2205C95.7625 97.677 95.8901 97.0946 95.8901 96.4735V81.5265Z"/>
<path d="M116.938 96.8035L117.023 97.8323L117.108 96.8035L123.871 75.0819H126.699L117.725 102.918H116.279L107.347 75.0819H110.197L116.938 96.8035Z"/>
<path d="M135.838 102.918V75.0819H153V77.4695H138.582V87.8159H150.257V90.2035H138.582V100.53H153V102.918H135.838Z"/>
<path d="M25 152.612V124.776H27.7433V150.224H39.4182V152.612H25Z"/>
<path d="M60.4451 146.128H50.7904L48.7914 152.612H45.9418L54.8734 124.776H56.3195L65.2937 152.612H62.4653L60.4451 146.128ZM51.5347 143.741H59.722L55.7028 130.91L55.6177 129.881L55.5327 130.91L51.5347 143.741Z"/>
<path d="M91.5944 145.779C91.5944 146.724 91.396 147.61 90.999 148.438C90.6162 149.267 90.0846 149.991 89.4041 150.612C88.7235 151.234 87.9225 151.725 87.001 152.088C86.0937 152.437 85.1225 152.612 84.0876 152.612H74.4329V124.776H84.0876C85.1225 124.776 86.0937 124.957 87.001 125.319C87.9225 125.668 88.7235 126.154 89.4041 126.775C90.0846 127.396 90.6162 128.127 90.999 128.968C91.396 129.797 91.5944 130.683 91.5944 131.628V131.9C91.5944 132.56 91.4952 133.194 91.2967 133.802C91.1124 134.397 90.843 134.954 90.4886 135.471C90.1342 135.989 89.716 136.461 89.2339 136.888C88.7519 137.302 88.2132 137.652 87.6177 137.937C88.2132 138.221 88.7519 138.577 89.2339 139.004C89.716 139.418 90.1342 139.891 90.4886 140.421C90.843 140.939 91.1124 141.502 91.2967 142.11C91.4952 142.705 91.5944 143.333 91.5944 143.993V145.779ZM88.8511 143.585C88.8511 142.964 88.7235 142.388 88.4684 141.858C88.2132 141.314 87.8587 140.842 87.4051 140.441C86.9656 140.04 86.4481 139.722 85.8527 139.49C85.2714 139.257 84.6405 139.14 83.96 139.14H77.1762V150.224H83.96C84.6405 150.224 85.2714 150.108 85.8527 149.875C86.4481 149.642 86.9656 149.325 87.4051 148.924C87.8587 148.522 88.2132 148.057 88.4684 147.526C88.7235 146.982 88.8511 146.4 88.8511 145.779V143.585ZM88.8511 131.628C88.8511 131.007 88.7235 130.431 88.4684 129.9C88.2132 129.357 87.8587 128.884 87.4051 128.483C86.9656 128.069 86.4481 127.746 85.8527 127.513C85.2714 127.28 84.6405 127.163 83.96 127.163H77.1762V136.753H83.96C84.6405 136.753 85.2714 136.636 85.8527 136.403C86.4481 136.17 86.9656 135.853 87.4051 135.452C87.8587 135.038 88.2132 134.565 88.4684 134.035C88.7235 133.491 88.8511 132.909 88.8511 132.288V131.628Z"/>
<path d="M118.788 146.167C118.788 147.112 118.576 147.998 118.15 148.827C117.739 149.655 117.179 150.379 116.47 151.001C115.776 151.622 114.96 152.114 114.025 152.476C113.103 152.825 112.125 153 111.09 153H108.9C107.865 153 106.879 152.825 105.944 152.476C105.022 152.114 104.207 151.622 103.498 151.001C102.804 150.379 102.244 149.655 101.818 148.827C101.407 147.998 101.201 147.112 101.201 146.167V145.061L103.945 144.653V146.167C103.945 146.788 104.079 147.371 104.349 147.914C104.632 148.445 105.008 148.917 105.476 149.331C105.944 149.732 106.483 150.049 107.092 150.282C107.716 150.515 108.368 150.632 109.049 150.632H110.963C111.643 150.632 112.288 150.515 112.898 150.282C113.507 150.049 114.046 149.732 114.514 149.331C114.982 148.917 115.35 148.445 115.62 147.914C115.903 147.371 116.045 146.788 116.045 146.167V145.332C116.045 144.375 115.839 143.579 115.428 142.945C115.017 142.311 114.471 141.774 113.791 141.334C113.11 140.881 112.338 140.499 111.473 140.188C110.622 139.878 109.743 139.567 108.836 139.257C107.929 138.946 107.043 138.603 106.178 138.228C105.327 137.852 104.561 137.387 103.881 136.83C103.2 136.261 102.655 135.568 102.244 134.753C101.832 133.938 101.627 132.935 101.627 131.744V131.22C101.627 130.276 101.818 129.389 102.201 128.561C102.598 127.733 103.137 127.008 103.817 126.387C104.498 125.766 105.292 125.28 106.199 124.931C107.12 124.568 108.099 124.387 109.134 124.387H111.09C112.125 124.387 113.096 124.568 114.004 124.931C114.911 125.28 115.705 125.766 116.385 126.387C117.066 127.008 117.597 127.733 117.98 128.561C118.377 129.389 118.576 130.276 118.576 131.22V131.938L115.832 132.346V131.22C115.832 130.599 115.705 130.023 115.45 129.493C115.194 128.949 114.847 128.477 114.408 128.076C113.968 127.674 113.451 127.357 112.855 127.124C112.274 126.891 111.643 126.775 110.963 126.775H109.261C108.581 126.775 107.943 126.891 107.347 127.124C106.766 127.357 106.249 127.674 105.795 128.076C105.355 128.477 105.008 128.949 104.753 129.493C104.498 130.023 104.37 130.599 104.37 131.22V131.744C104.37 132.637 104.576 133.388 104.987 133.996C105.398 134.604 105.944 135.128 106.624 135.568C107.305 135.995 108.07 136.371 108.921 136.694C109.786 137.005 110.672 137.328 111.579 137.665C112.487 137.988 113.366 138.351 114.216 138.752C115.081 139.14 115.854 139.625 116.534 140.208C117.215 140.777 117.76 141.476 118.172 142.304C118.583 143.132 118.788 144.142 118.788 145.332V146.167Z"/>
</mask>
<path d="M42.1615 46.7798C42.1615 47.7245 41.9631 48.611 41.5661 49.4392C41.1833 50.2674 40.6517 50.9921 39.9712 51.6133C39.2907 52.2345 38.4967 52.7262 37.5894 53.0886C36.682 53.438 35.7109 53.6127 34.676 53.6127H32.5068C31.4719 53.6127 30.4937 53.438 29.5722 53.0886C28.6648 52.7262 27.8709 52.2345 27.1904 51.6133C26.5099 50.9921 25.9711 50.2674 25.5742 49.4392C25.1914 48.611 25 47.7245 25 46.7798V31.8329C25 30.8882 25.1914 30.0017 25.5742 29.1735C25.9711 28.3453 26.5099 27.6206 27.1904 26.9994C27.8709 26.3782 28.6648 25.8929 29.5722 25.5435C30.4937 25.1812 31.4719 25 32.5068 25H34.676C35.7109 25 36.682 25.1812 37.5894 25.5435C38.4967 25.8929 39.2907 26.3782 39.9712 26.9994C40.6517 27.6206 41.1833 28.3453 41.5661 29.1735C41.9631 30.0017 42.1615 30.8882 42.1615 31.8329V32.9588L39.4182 33.347V31.8329C39.4182 31.2117 39.2907 30.6358 39.0355 30.1052C38.7803 29.5617 38.4329 29.0894 37.9934 28.6882C37.5539 28.287 37.0365 27.97 36.441 27.737C35.8598 27.5041 35.2289 27.3876 34.5484 27.3876H32.6344C31.9539 27.3876 31.316 27.5041 30.7205 27.737C30.1392 27.97 29.6218 28.287 29.1681 28.6882C28.7286 29.0894 28.3813 29.5617 28.1261 30.1052C27.8709 30.6358 27.7433 31.2117 27.7433 31.8329V46.7798C27.7433 47.401 27.8709 47.9833 28.1261 48.5268C28.3813 49.0574 28.7286 49.5298 29.1681 49.9439C29.6218 50.3451 30.1392 50.6621 30.7205 50.8951C31.316 51.128 31.9539 51.2445 32.6344 51.2445H34.5484C35.2289 51.2445 35.8598 51.128 36.441 50.8951C37.0365 50.6621 37.5539 50.3451 37.9934 49.9439C38.4329 49.5298 38.7803 49.0574 39.0355 48.5268C39.2907 47.9833 39.4182 47.401 39.4182 46.7798V45.2657L42.1615 45.6733V46.7798Z" fill="white"/>
<path d="M53.5124 53.2244V25.3882H70.6739V27.7759H56.2557V38.1222H67.9306V40.5099H56.2557V50.8368H70.6739V53.2244H53.5124Z" fill="white"/>
<path d="M98.3144 46.3916C98.3144 47.3363 98.116 48.2227 97.719 49.051C97.3362 49.8792 96.8046 50.6039 96.1241 51.2251C95.4436 51.8462 94.6425 52.338 93.721 52.7003C92.8137 53.0497 91.8425 53.2244 90.8076 53.2244H81.1529V25.3882H90.8076C91.8425 25.3882 92.8137 25.5694 93.721 25.9318C94.6425 26.2812 95.4436 26.7665 96.1241 27.3876C96.8046 28.0088 97.3362 28.74 97.719 29.5811C98.116 30.4094 98.3144 31.2958 98.3144 32.2405V46.3916ZM95.5711 32.2405C95.5711 31.6194 95.4436 31.0435 95.1884 30.5129C94.9332 29.9694 94.5787 29.497 94.1251 29.0958C93.6856 28.6817 93.1681 28.3582 92.5727 28.1253C91.9914 27.8923 91.3605 27.7759 90.68 27.7759H83.8962V50.8368H90.68C91.3605 50.8368 91.9914 50.7204 92.5727 50.4874C93.1681 50.2545 93.6856 49.9374 94.1251 49.5362C94.5787 49.1351 94.9332 48.6692 95.1884 48.1386C95.4436 47.5951 95.5711 47.0127 95.5711 46.3916V32.2405Z" fill="white"/>
<path d="M121.51 46.741H111.856L109.857 53.2244H107.007L115.939 25.3882H117.385L126.359 53.2244H123.531L121.51 46.741ZM112.6 44.3534H120.787L116.768 31.5223L116.683 30.4935L116.598 31.5223L112.6 44.3534Z" fill="white"/>
<path d="M149.831 53.2244L141.559 41.3446H137.795V53.2244H135.052V25.3882H144.728C145.763 25.3882 146.734 25.5694 147.641 25.9318C148.548 26.2812 149.342 26.7665 150.023 27.3876C150.703 28.0088 151.235 28.74 151.618 29.5811C152.015 30.4094 152.213 31.2958 152.213 32.2405V34.4923C152.213 35.437 152.015 36.3299 151.618 37.1711C151.235 37.9993 150.703 38.724 150.023 39.3452C149.342 39.9663 148.548 40.4581 147.641 40.8204C146.734 41.1699 145.763 41.3446 144.728 41.3446L153 53.2244H149.831ZM149.47 32.2405C149.47 31.6194 149.342 31.0435 149.087 30.5129C148.832 29.9694 148.485 29.497 148.045 29.0958C147.606 28.6817 147.088 28.3582 146.493 28.1253C145.911 27.8923 145.28 27.7759 144.6 27.7759H137.795V38.9569H144.6C145.28 38.9569 145.911 38.8405 146.493 38.6075C147.088 38.3746 147.606 38.0575 148.045 37.6564C148.485 37.2422 148.832 36.7699 149.087 36.2393C149.342 35.6958 149.47 35.1134 149.47 34.4923V32.2405Z" fill="white"/>
<path d="M42.1615 102.918H41.2896L39.6947 100.686C39.0284 101.488 38.2203 102.129 37.2704 102.608C36.3205 103.073 35.2643 103.306 34.1018 103.306H32.5068C31.4719 103.306 30.4937 103.132 29.5722 102.782C28.6648 102.42 27.8709 101.928 27.1904 101.307C26.5099 100.686 25.9711 99.9611 25.5742 99.1329C25.1914 98.3046 25 97.4182 25 96.4735V81.5265C25 80.5818 25.1914 79.6954 25.5742 78.8672C25.9711 78.0389 26.5099 77.3142 27.1904 76.6931C27.8709 76.0719 28.6648 75.5866 29.5722 75.2372C30.4937 74.8748 31.4719 74.6937 32.5068 74.6937H34.676C35.7109 74.6937 36.682 74.8748 37.5894 75.2372C38.4967 75.5866 39.2907 76.0719 39.9712 76.6931C40.6517 77.3142 41.1833 78.0389 41.5661 78.8672C41.9631 79.6954 42.1615 80.5818 42.1615 81.5265V82.6524L39.4182 83.0406V81.5265C39.4182 80.9054 39.2907 80.3295 39.0355 79.7989C38.7803 79.2554 38.4329 78.783 37.9934 78.3819C37.5539 77.9807 37.0365 77.6636 36.441 77.4307C35.8598 77.1978 35.2289 77.0813 34.5484 77.0813H32.6344C31.9539 77.0813 31.316 77.1978 30.7205 77.4307C30.1392 77.6636 29.6218 77.9807 29.1681 78.3819C28.7286 78.783 28.3813 79.2554 28.1261 79.7989C27.8709 80.3295 27.7433 80.9054 27.7433 81.5265V96.4735C27.7433 97.0946 27.8709 97.677 28.1261 98.2205C28.3813 98.7511 28.7286 99.2234 29.1681 99.6376C29.6218 100.039 30.1392 100.356 30.7205 100.589C31.316 100.822 31.9539 100.938 32.6344 100.938H34.5484C35.2289 100.938 35.8598 100.822 36.441 100.589C37.0365 100.356 37.5539 100.039 37.9934 99.6376C38.4329 99.2234 38.7803 98.7511 39.0355 98.2205C39.2907 97.677 39.4182 97.0946 39.4182 96.4735V90.6694H34.5484V88.2818H42.1615V102.918Z" fill="white"/>
<path d="M68.2709 102.918L59.9985 91.0382H56.2344V102.918H53.4911V75.0819H63.1671C64.202 75.0819 65.1732 75.2631 66.0805 75.6254C66.9879 75.9748 67.7818 76.4601 68.4623 77.0813C69.1428 77.7025 69.6744 78.4336 70.0572 79.2748C70.4542 80.103 70.6527 80.9895 70.6527 81.9342V84.1859C70.6527 85.1306 70.4542 86.0236 70.0572 86.8647C69.6744 87.693 69.1428 88.4177 68.4623 89.0388C67.7818 89.66 66.9879 90.1518 66.0805 90.5141C65.1732 90.8635 64.202 91.0382 63.1671 91.0382L71.4395 102.918H68.2709ZM67.9094 81.9342C67.9094 81.313 67.7818 80.7371 67.5266 80.2066C67.2714 79.663 66.9241 79.1907 66.4846 78.7895C66.0451 78.3754 65.5276 78.0519 64.9322 77.8189C64.3509 77.586 63.72 77.4695 63.0395 77.4695H56.2344V88.6506H63.0395C63.72 88.6506 64.3509 88.5341 64.9322 88.3012C65.5276 88.0682 66.0451 87.7512 66.4846 87.35C66.9241 86.9359 67.2714 86.4636 67.5266 85.933C67.7818 85.3894 67.9094 84.8071 67.9094 84.1859V81.9342Z" fill="white"/>
<path d="M98.6334 96.4735C98.6334 97.4182 98.4349 98.3046 98.038 99.1329C97.6552 99.9611 97.1236 100.686 96.443 101.307C95.7625 101.928 94.9686 102.42 94.0613 102.782C93.1539 103.132 92.1828 103.306 91.1479 103.306H88.9787C87.9438 103.306 86.9656 103.132 86.044 102.782C85.1367 102.42 84.3428 101.928 83.6623 101.307C82.9818 100.686 82.443 99.9611 82.0461 99.1329C81.6633 98.3046 81.4719 97.4182 81.4719 96.4735V81.5265C81.4719 80.5818 81.6633 79.6954 82.0461 78.8672C82.443 78.0389 82.9818 77.3142 83.6623 76.6931C84.3428 76.0719 85.1367 75.5866 86.044 75.2372C86.9656 74.8748 87.9438 74.6937 88.9787 74.6937H91.1479C92.1828 74.6937 93.1539 74.8748 94.0613 75.2372C94.9686 75.5866 95.7625 76.0719 96.443 76.6931C97.1236 77.3142 97.6552 78.0389 98.038 78.8672C98.4349 79.6954 98.6334 80.5818 98.6334 81.5265V96.4735ZM95.8901 81.5265C95.8901 80.9054 95.7625 80.3295 95.5073 79.7989C95.2522 79.2554 94.9048 78.783 94.4653 78.3819C94.0258 77.9807 93.5084 77.6636 92.9129 77.4307C92.3316 77.1978 91.7008 77.0813 91.0203 77.0813H89.1063C88.4258 77.0813 87.7878 77.1978 87.1924 77.4307C86.6111 77.6636 86.0937 77.9807 85.64 78.3819C85.2005 78.783 84.8532 79.2554 84.598 79.7989C84.3428 80.3295 84.2152 80.9054 84.2152 81.5265V96.4735C84.2152 97.0946 84.3428 97.677 84.598 98.2205C84.8532 98.7511 85.2005 99.2234 85.64 99.6376C86.0937 100.039 86.6111 100.356 87.1924 100.589C87.7878 100.822 88.4258 100.938 89.1063 100.938H91.0203C91.7008 100.938 92.3316 100.822 92.9129 100.589C93.5084 100.356 94.0258 100.039 94.4653 99.6376C94.9048 99.2234 95.2522 98.7511 95.5073 98.2205C95.7625 97.677 95.8901 97.0946 95.8901 96.4735V81.5265Z" fill="white"/>
<path d="M116.938 96.8035L117.023 97.8323L117.108 96.8035L123.871 75.0819H126.699L117.725 102.918H116.279L107.347 75.0819H110.197L116.938 96.8035Z" fill="white"/>
<path d="M135.838 102.918V75.0819H153V77.4695H138.582V87.8159H150.257V90.2035H138.582V100.53H153V102.918H135.838Z" fill="white"/>
<path d="M25 152.612V124.776H27.7433V150.224H39.4182V152.612H25Z" fill="white"/>
<path d="M60.4451 146.128H50.7904L48.7914 152.612H45.9418L54.8734 124.776H56.3195L65.2937 152.612H62.4653L60.4451 146.128ZM51.5347 143.741H59.722L55.7028 130.91L55.6177 129.881L55.5327 130.91L51.5347 143.741Z" fill="white"/>
<path d="M91.5944 145.779C91.5944 146.724 91.396 147.61 90.999 148.438C90.6162 149.267 90.0846 149.991 89.4041 150.612C88.7235 151.234 87.9225 151.725 87.001 152.088C86.0937 152.437 85.1225 152.612 84.0876 152.612H74.4329V124.776H84.0876C85.1225 124.776 86.0937 124.957 87.001 125.319C87.9225 125.668 88.7235 126.154 89.4041 126.775C90.0846 127.396 90.6162 128.127 90.999 128.968C91.396 129.797 91.5944 130.683 91.5944 131.628V131.9C91.5944 132.56 91.4952 133.194 91.2967 133.802C91.1124 134.397 90.843 134.954 90.4886 135.471C90.1342 135.989 89.716 136.461 89.2339 136.888C88.7519 137.302 88.2132 137.652 87.6177 137.937C88.2132 138.221 88.7519 138.577 89.2339 139.004C89.716 139.418 90.1342 139.891 90.4886 140.421C90.843 140.939 91.1124 141.502 91.2967 142.11C91.4952 142.705 91.5944 143.333 91.5944 143.993V145.779ZM88.8511 143.585C88.8511 142.964 88.7235 142.388 88.4684 141.858C88.2132 141.314 87.8587 140.842 87.4051 140.441C86.9656 140.04 86.4481 139.722 85.8527 139.49C85.2714 139.257 84.6405 139.14 83.96 139.14H77.1762V150.224H83.96C84.6405 150.224 85.2714 150.108 85.8527 149.875C86.4481 149.642 86.9656 149.325 87.4051 148.924C87.8587 148.522 88.2132 148.057 88.4684 147.526C88.7235 146.982 88.8511 146.4 88.8511 145.779V143.585ZM88.8511 131.628C88.8511 131.007 88.7235 130.431 88.4684 129.9C88.2132 129.357 87.8587 128.884 87.4051 128.483C86.9656 128.069 86.4481 127.746 85.8527 127.513C85.2714 127.28 84.6405 127.163 83.96 127.163H77.1762V136.753H83.96C84.6405 136.753 85.2714 136.636 85.8527 136.403C86.4481 136.17 86.9656 135.853 87.4051 135.452C87.8587 135.038 88.2132 134.565 88.4684 134.035C88.7235 133.491 88.8511 132.909 88.8511 132.288V131.628Z" fill="white"/>
<path d="M118.788 146.167C118.788 147.112 118.576 147.998 118.15 148.827C117.739 149.655 117.179 150.379 116.47 151.001C115.776 151.622 114.96 152.114 114.025 152.476C113.103 152.825 112.125 153 111.09 153H108.9C107.865 153 106.879 152.825 105.944 152.476C105.022 152.114 104.207 151.622 103.498 151.001C102.804 150.379 102.244 149.655 101.818 148.827C101.407 147.998 101.201 147.112 101.201 146.167V145.061L103.945 144.653V146.167C103.945 146.788 104.079 147.371 104.349 147.914C104.632 148.445 105.008 148.917 105.476 149.331C105.944 149.732 106.483 150.049 107.092 150.282C107.716 150.515 108.368 150.632 109.049 150.632H110.963C111.643 150.632 112.288 150.515 112.898 150.282C113.507 150.049 114.046 149.732 114.514 149.331C114.982 148.917 115.35 148.445 115.62 147.914C115.903 147.371 116.045 146.788 116.045 146.167V145.332C116.045 144.375 115.839 143.579 115.428 142.945C115.017 142.311 114.471 141.774 113.791 141.334C113.11 140.881 112.338 140.499 111.473 140.188C110.622 139.878 109.743 139.567 108.836 139.257C107.929 138.946 107.043 138.603 106.178 138.228C105.327 137.852 104.561 137.387 103.881 136.83C103.2 136.261 102.655 135.568 102.244 134.753C101.832 133.938 101.627 132.935 101.627 131.744V131.22C101.627 130.276 101.818 129.389 102.201 128.561C102.598 127.733 103.137 127.008 103.817 126.387C104.498 125.766 105.292 125.28 106.199 124.931C107.12 124.568 108.099 124.387 109.134 124.387H111.09C112.125 124.387 113.096 124.568 114.004 124.931C114.911 125.28 115.705 125.766 116.385 126.387C117.066 127.008 117.597 127.733 117.98 128.561C118.377 129.389 118.576 130.276 118.576 131.22V131.938L115.832 132.346V131.22C115.832 130.599 115.705 130.023 115.45 129.493C115.194 128.949 114.847 128.477 114.408 128.076C113.968 127.674 113.451 127.357 112.855 127.124C112.274 126.891 111.643 126.775 110.963 126.775H109.261C108.581 126.775 107.943 126.891 107.347 127.124C106.766 127.357 106.249 127.674 105.795 128.076C105.355 128.477 105.008 128.949 104.753 129.493C104.498 130.023 104.37 130.599 104.37 131.22V131.744C104.37 132.637 104.576 133.388 104.987 133.996C105.398 134.604 105.944 135.128 106.624 135.568C107.305 135.995 108.07 136.371 108.921 136.694C109.786 137.005 110.672 137.328 111.579 137.665C112.487 137.988 113.366 138.351 114.216 138.752C115.081 139.14 115.854 139.625 116.534 140.208C117.215 140.777 117.76 141.476 118.172 142.304C118.583 143.132 118.788 144.142 118.788 145.332V146.167Z" fill="white"/>
<path d="M42.1615 46.7798C42.1615 47.7245 41.9631 48.611 41.5661 49.4392C41.1833 50.2674 40.6517 50.9921 39.9712 51.6133C39.2907 52.2345 38.4967 52.7262 37.5894 53.0886C36.682 53.438 35.7109 53.6127 34.676 53.6127H32.5068C31.4719 53.6127 30.4937 53.438 29.5722 53.0886C28.6648 52.7262 27.8709 52.2345 27.1904 51.6133C26.5099 50.9921 25.9711 50.2674 25.5742 49.4392C25.1914 48.611 25 47.7245 25 46.7798V31.8329C25 30.8882 25.1914 30.0017 25.5742 29.1735C25.9711 28.3453 26.5099 27.6206 27.1904 26.9994C27.8709 26.3782 28.6648 25.8929 29.5722 25.5435C30.4937 25.1812 31.4719 25 32.5068 25H34.676C35.7109 25 36.682 25.1812 37.5894 25.5435C38.4967 25.8929 39.2907 26.3782 39.9712 26.9994C40.6517 27.6206 41.1833 28.3453 41.5661 29.1735C41.9631 30.0017 42.1615 30.8882 42.1615 31.8329V32.9588L39.4182 33.347V31.8329C39.4182 31.2117 39.2907 30.6358 39.0355 30.1052C38.7803 29.5617 38.4329 29.0894 37.9934 28.6882C37.5539 28.287 37.0365 27.97 36.441 27.737C35.8598 27.5041 35.2289 27.3876 34.5484 27.3876H32.6344C31.9539 27.3876 31.316 27.5041 30.7205 27.737C30.1392 27.97 29.6218 28.287 29.1681 28.6882C28.7286 29.0894 28.3813 29.5617 28.1261 30.1052C27.8709 30.6358 27.7433 31.2117 27.7433 31.8329V46.7798C27.7433 47.401 27.8709 47.9833 28.1261 48.5268C28.3813 49.0574 28.7286 49.5298 29.1681 49.9439C29.6218 50.3451 30.1392 50.6621 30.7205 50.8951C31.316 51.128 31.9539 51.2445 32.6344 51.2445H34.5484C35.2289 51.2445 35.8598 51.128 36.441 50.8951C37.0365 50.6621 37.5539 50.3451 37.9934 49.9439C38.4329 49.5298 38.7803 49.0574 39.0355 48.5268C39.2907 47.9833 39.4182 47.401 39.4182 46.7798V45.2657L42.1615 45.6733V46.7798Z" stroke="white" stroke-width="2" mask="url(#path-1-outside-1_611_192)"/>
<path d="M53.5124 53.2244V25.3882H70.6739V27.7759H56.2557V38.1222H67.9306V40.5099H56.2557V50.8368H70.6739V53.2244H53.5124Z" stroke="white" stroke-width="2" mask="url(#path-1-outside-1_611_192)"/>
<path d="M98.3144 46.3916C98.3144 47.3363 98.116 48.2227 97.719 49.051C97.3362 49.8792 96.8046 50.6039 96.1241 51.2251C95.4436 51.8462 94.6425 52.338 93.721 52.7003C92.8137 53.0497 91.8425 53.2244 90.8076 53.2244H81.1529V25.3882H90.8076C91.8425 25.3882 92.8137 25.5694 93.721 25.9318C94.6425 26.2812 95.4436 26.7665 96.1241 27.3876C96.8046 28.0088 97.3362 28.74 97.719 29.5811C98.116 30.4094 98.3144 31.2958 98.3144 32.2405V46.3916ZM95.5711 32.2405C95.5711 31.6194 95.4436 31.0435 95.1884 30.5129C94.9332 29.9694 94.5787 29.497 94.1251 29.0958C93.6856 28.6817 93.1681 28.3582 92.5727 28.1253C91.9914 27.8923 91.3605 27.7759 90.68 27.7759H83.8962V50.8368H90.68C91.3605 50.8368 91.9914 50.7204 92.5727 50.4874C93.1681 50.2545 93.6856 49.9374 94.1251 49.5362C94.5787 49.1351 94.9332 48.6692 95.1884 48.1386C95.4436 47.5951 95.5711 47.0127 95.5711 46.3916V32.2405Z" stroke="white" stroke-width="2" mask="url(#path-1-outside-1_611_192)"/>
<path d="M121.51 46.741H111.856L109.857 53.2244H107.007L115.939 25.3882H117.385L126.359 53.2244H123.531L121.51 46.741ZM112.6 44.3534H120.787L116.768 31.5223L116.683 30.4935L116.598 31.5223L112.6 44.3534Z" stroke="white" stroke-width="2" mask="url(#path-1-outside-1_611_192)"/>
<path d="M149.831 53.2244L141.559 41.3446H137.795V53.2244H135.052V25.3882H144.728C145.763 25.3882 146.734 25.5694 147.641 25.9318C148.548 26.2812 149.342 26.7665 150.023 27.3876C150.703 28.0088 151.235 28.74 151.618 29.5811C152.015 30.4094 152.213 31.2958 152.213 32.2405V34.4923C152.213 35.437 152.015 36.3299 151.618 37.1711C151.235 37.9993 150.703 38.724 150.023 39.3452C149.342 39.9663 148.548 40.4581 147.641 40.8204C146.734 41.1699 145.763 41.3446 144.728 41.3446L153 53.2244H149.831ZM149.47 32.2405C149.47 31.6194 149.342 31.0435 149.087 30.5129C148.832 29.9694 148.485 29.497 148.045 29.0958C147.606 28.6817 147.088 28.3582 146.493 28.1253C145.911 27.8923 145.28 27.7759 144.6 27.7759H137.795V38.9569H144.6C145.28 38.9569 145.911 38.8405 146.493 38.6075C147.088 38.3746 147.606 38.0575 148.045 37.6564C148.485 37.2422 148.832 36.7699 149.087 36.2393C149.342 35.6958 149.47 35.1134 149.47 34.4923V32.2405Z" stroke="white" stroke-width="2" mask="url(#path-1-outside-1_611_192)"/>
<path d="M42.1615 102.918H41.2896L39.6947 100.686C39.0284 101.488 38.2203 102.129 37.2704 102.608C36.3205 103.073 35.2643 103.306 34.1018 103.306H32.5068C31.4719 103.306 30.4937 103.132 29.5722 102.782C28.6648 102.42 27.8709 101.928 27.1904 101.307C26.5099 100.686 25.9711 99.9611 25.5742 99.1329C25.1914 98.3046 25 97.4182 25 96.4735V81.5265C25 80.5818 25.1914 79.6954 25.5742 78.8672C25.9711 78.0389 26.5099 77.3142 27.1904 76.6931C27.8709 76.0719 28.6648 75.5866 29.5722 75.2372C30.4937 74.8748 31.4719 74.6937 32.5068 74.6937H34.676C35.7109 74.6937 36.682 74.8748 37.5894 75.2372C38.4967 75.5866 39.2907 76.0719 39.9712 76.6931C40.6517 77.3142 41.1833 78.0389 41.5661 78.8672C41.9631 79.6954 42.1615 80.5818 42.1615 81.5265V82.6524L39.4182 83.0406V81.5265C39.4182 80.9054 39.2907 80.3295 39.0355 79.7989C38.7803 79.2554 38.4329 78.783 37.9934 78.3819C37.5539 77.9807 37.0365 77.6636 36.441 77.4307C35.8598 77.1978 35.2289 77.0813 34.5484 77.0813H32.6344C31.9539 77.0813 31.316 77.1978 30.7205 77.4307C30.1392 77.6636 29.6218 77.9807 29.1681 78.3819C28.7286 78.783 28.3813 79.2554 28.1261 79.7989C27.8709 80.3295 27.7433 80.9054 27.7433 81.5265V96.4735C27.7433 97.0946 27.8709 97.677 28.1261 98.2205C28.3813 98.7511 28.7286 99.2234 29.1681 99.6376C29.6218 100.039 30.1392 100.356 30.7205 100.589C31.316 100.822 31.9539 100.938 32.6344 100.938H34.5484C35.2289 100.938 35.8598 100.822 36.441 100.589C37.0365 100.356 37.5539 100.039 37.9934 99.6376C38.4329 99.2234 38.7803 98.7511 39.0355 98.2205C39.2907 97.677 39.4182 97.0946 39.4182 96.4735V90.6694H34.5484V88.2818H42.1615V102.918Z" stroke="white" stroke-width="2" mask="url(#path-1-outside-1_611_192)"/>
<path d="M68.2709 102.918L59.9985 91.0382H56.2344V102.918H53.4911V75.0819H63.1671C64.202 75.0819 65.1732 75.2631 66.0805 75.6254C66.9879 75.9748 67.7818 76.4601 68.4623 77.0813C69.1428 77.7025 69.6744 78.4336 70.0572 79.2748C70.4542 80.103 70.6527 80.9895 70.6527 81.9342V84.1859C70.6527 85.1306 70.4542 86.0236 70.0572 86.8647C69.6744 87.693 69.1428 88.4177 68.4623 89.0388C67.7818 89.66 66.9879 90.1518 66.0805 90.5141C65.1732 90.8635 64.202 91.0382 63.1671 91.0382L71.4395 102.918H68.2709ZM67.9094 81.9342C67.9094 81.313 67.7818 80.7371 67.5266 80.2066C67.2714 79.663 66.9241 79.1907 66.4846 78.7895C66.0451 78.3754 65.5276 78.0519 64.9322 77.8189C64.3509 77.586 63.72 77.4695 63.0395 77.4695H56.2344V88.6506H63.0395C63.72 88.6506 64.3509 88.5341 64.9322 88.3012C65.5276 88.0682 66.0451 87.7512 66.4846 87.35C66.9241 86.9359 67.2714 86.4636 67.5266 85.933C67.7818 85.3894 67.9094 84.8071 67.9094 84.1859V81.9342Z" stroke="white" stroke-width="2" mask="url(#path-1-outside-1_611_192)"/>
<path d="M98.6334 96.4735C98.6334 97.4182 98.4349 98.3046 98.038 99.1329C97.6552 99.9611 97.1236 100.686 96.443 101.307C95.7625 101.928 94.9686 102.42 94.0613 102.782C93.1539 103.132 92.1828 103.306 91.1479 103.306H88.9787C87.9438 103.306 86.9656 103.132 86.044 102.782C85.1367 102.42 84.3428 101.928 83.6623 101.307C82.9818 100.686 82.443 99.9611 82.0461 99.1329C81.6633 98.3046 81.4719 97.4182 81.4719 96.4735V81.5265C81.4719 80.5818 81.6633 79.6954 82.0461 78.8672C82.443 78.0389 82.9818 77.3142 83.6623 76.6931C84.3428 76.0719 85.1367 75.5866 86.044 75.2372C86.9656 74.8748 87.9438 74.6937 88.9787 74.6937H91.1479C92.1828 74.6937 93.1539 74.8748 94.0613 75.2372C94.9686 75.5866 95.7625 76.0719 96.443 76.6931C97.1236 77.3142 97.6552 78.0389 98.038 78.8672C98.4349 79.6954 98.6334 80.5818 98.6334 81.5265V96.4735ZM95.8901 81.5265C95.8901 80.9054 95.7625 80.3295 95.5073 79.7989C95.2522 79.2554 94.9048 78.783 94.4653 78.3819C94.0258 77.9807 93.5084 77.6636 92.9129 77.4307C92.3316 77.1978 91.7008 77.0813 91.0203 77.0813H89.1063C88.4258 77.0813 87.7878 77.1978 87.1924 77.4307C86.6111 77.6636 86.0937 77.9807 85.64 78.3819C85.2005 78.783 84.8532 79.2554 84.598 79.7989C84.3428 80.3295 84.2152 80.9054 84.2152 81.5265V96.4735C84.2152 97.0946 84.3428 97.677 84.598 98.2205C84.8532 98.7511 85.2005 99.2234 85.64 99.6376C86.0937 100.039 86.6111 100.356 87.1924 100.589C87.7878 100.822 88.4258 100.938 89.1063 100.938H91.0203C91.7008 100.938 92.3316 100.822 92.9129 100.589C93.5084 100.356 94.0258 100.039 94.4653 99.6376C94.9048 99.2234 95.2522 98.7511 95.5073 98.2205C95.7625 97.677 95.8901 97.0946 95.8901 96.4735V81.5265Z" stroke="white" stroke-width="2" mask="url(#path-1-outside-1_611_192)"/>
<path d="M116.938 96.8035L117.023 97.8323L117.108 96.8035L123.871 75.0819H126.699L117.725 102.918H116.279L107.347 75.0819H110.197L116.938 96.8035Z" stroke="white" stroke-width="2" mask="url(#path-1-outside-1_611_192)"/>
<path d="M135.838 102.918V75.0819H153V77.4695H138.582V87.8159H150.257V90.2035H138.582V100.53H153V102.918H135.838Z" stroke="white" stroke-width="2" mask="url(#path-1-outside-1_611_192)"/>
<path d="M25 152.612V124.776H27.7433V150.224H39.4182V152.612H25Z" stroke="white" stroke-width="2" mask="url(#path-1-outside-1_611_192)"/>
<path d="M60.4451 146.128H50.7904L48.7914 152.612H45.9418L54.8734 124.776H56.3195L65.2937 152.612H62.4653L60.4451 146.128ZM51.5347 143.741H59.722L55.7028 130.91L55.6177 129.881L55.5327 130.91L51.5347 143.741Z" stroke="white" stroke-width="2" mask="url(#path-1-outside-1_611_192)"/>
<path d="M91.5944 145.779C91.5944 146.724 91.396 147.61 90.999 148.438C90.6162 149.267 90.0846 149.991 89.4041 150.612C88.7235 151.234 87.9225 151.725 87.001 152.088C86.0937 152.437 85.1225 152.612 84.0876 152.612H74.4329V124.776H84.0876C85.1225 124.776 86.0937 124.957 87.001 125.319C87.9225 125.668 88.7235 126.154 89.4041 126.775C90.0846 127.396 90.6162 128.127 90.999 128.968C91.396 129.797 91.5944 130.683 91.5944 131.628V131.9C91.5944 132.56 91.4952 133.194 91.2967 133.802C91.1124 134.397 90.843 134.954 90.4886 135.471C90.1342 135.989 89.716 136.461 89.2339 136.888C88.7519 137.302 88.2132 137.652 87.6177 137.937C88.2132 138.221 88.7519 138.577 89.2339 139.004C89.716 139.418 90.1342 139.891 90.4886 140.421C90.843 140.939 91.1124 141.502 91.2967 142.11C91.4952 142.705 91.5944 143.333 91.5944 143.993V145.779ZM88.8511 143.585C88.8511 142.964 88.7235 142.388 88.4684 141.858C88.2132 141.314 87.8587 140.842 87.4051 140.441C86.9656 140.04 86.4481 139.722 85.8527 139.49C85.2714 139.257 84.6405 139.14 83.96 139.14H77.1762V150.224H83.96C84.6405 150.224 85.2714 150.108 85.8527 149.875C86.4481 149.642 86.9656 149.325 87.4051 148.924C87.8587 148.522 88.2132 148.057 88.4684 147.526C88.7235 146.982 88.8511 146.4 88.8511 145.779V143.585ZM88.8511 131.628C88.8511 131.007 88.7235 130.431 88.4684 129.9C88.2132 129.357 87.8587 128.884 87.4051 128.483C86.9656 128.069 86.4481 127.746 85.8527 127.513C85.2714 127.28 84.6405 127.163 83.96 127.163H77.1762V136.753H83.96C84.6405 136.753 85.2714 136.636 85.8527 136.403C86.4481 136.17 86.9656 135.853 87.4051 135.452C87.8587 135.038 88.2132 134.565 88.4684 134.035C88.7235 133.491 88.8511 132.909 88.8511 132.288V131.628Z" stroke="white" stroke-width="2" mask="url(#path-1-outside-1_611_192)"/>
<path d="M118.788 146.167C118.788 147.112 118.576 147.998 118.15 148.827C117.739 149.655 117.179 150.379 116.47 151.001C115.776 151.622 114.96 152.114 114.025 152.476C113.103 152.825 112.125 153 111.09 153H108.9C107.865 153 106.879 152.825 105.944 152.476C105.022 152.114 104.207 151.622 103.498 151.001C102.804 150.379 102.244 149.655 101.818 148.827C101.407 147.998 101.201 147.112 101.201 146.167V145.061L103.945 144.653V146.167C103.945 146.788 104.079 147.371 104.349 147.914C104.632 148.445 105.008 148.917 105.476 149.331C105.944 149.732 106.483 150.049 107.092 150.282C107.716 150.515 108.368 150.632 109.049 150.632H110.963C111.643 150.632 112.288 150.515 112.898 150.282C113.507 150.049 114.046 149.732 114.514 149.331C114.982 148.917 115.35 148.445 115.62 147.914C115.903 147.371 116.045 146.788 116.045 146.167V145.332C116.045 144.375 115.839 143.579 115.428 142.945C115.017 142.311 114.471 141.774 113.791 141.334C113.11 140.881 112.338 140.499 111.473 140.188C110.622 139.878 109.743 139.567 108.836 139.257C107.929 138.946 107.043 138.603 106.178 138.228C105.327 137.852 104.561 137.387 103.881 136.83C103.2 136.261 102.655 135.568 102.244 134.753C101.832 133.938 101.627 132.935 101.627 131.744V131.22C101.627 130.276 101.818 129.389 102.201 128.561C102.598 127.733 103.137 127.008 103.817 126.387C104.498 125.766 105.292 125.28 106.199 124.931C107.12 124.568 108.099 124.387 109.134 124.387H111.09C112.125 124.387 113.096 124.568 114.004 124.931C114.911 125.28 115.705 125.766 116.385 126.387C117.066 127.008 117.597 127.733 117.98 128.561C118.377 129.389 118.576 130.276 118.576 131.22V131.938L115.832 132.346V131.22C115.832 130.599 115.705 130.023 115.45 129.493C115.194 128.949 114.847 128.477 114.408 128.076C113.968 127.674 113.451 127.357 112.855 127.124C112.274 126.891 111.643 126.775 110.963 126.775H109.261C108.581 126.775 107.943 126.891 107.347 127.124C106.766 127.357 106.249 127.674 105.795 128.076C105.355 128.477 105.008 128.949 104.753 129.493C104.498 130.023 104.37 130.599 104.37 131.22V131.744C104.37 132.637 104.576 133.388 104.987 133.996C105.398 134.604 105.944 135.128 106.624 135.568C107.305 135.995 108.07 136.371 108.921 136.694C109.786 137.005 110.672 137.328 111.579 137.665C112.487 137.988 113.366 138.351 114.216 138.752C115.081 139.14 115.854 139.625 116.534 140.208C117.215 140.777 117.76 141.476 118.172 142.304C118.583 143.132 118.788 144.142 118.788 145.332V146.167Z" stroke="white" stroke-width="2" mask="url(#path-1-outside-1_611_192)"/>
</svg>
